<?xml version="1.0" standalone="no"?><!DOCTYPE svg PUBLIC "-//W3C//DTD SVG 1.1//EN" "http://www.w3.org/Graphics/SVG/1.1/DTD/svg11.dtd"><svg width="100%" height="100%" viewBox="0 0 100 140" version="1.1" xmlns="http://www.w3.org/2000/svg" xmlns:xlink="http://www.w3.org/1999/xlink" xml:space="preserve" style="fill-rule:evenodd;clip-rule:evenodd;stroke-linejoin:round;stroke-miterlimit:1.41421;"><g><rect x="0" y="0" width="17.727" height="139.985" style="fill:#fff;"/><path d="M31.936,71.906l0,68.079l-6.035,0l0,-139.985l6.035,0l0,68.11c5.699,-3.031 9.206,-8.962 12,-14.549c1.512,-3.031 2.857,-6.142 3.997,-9.331c0.545,-1.528 1.046,-3.072 1.498,-4.631c0.371,-1.284 0.838,-0.918 1.074,0.134c1.315,5.807 4.268,12.368 9.708,15.338c4.984,2.726 12.834,3.147 16.369,-2.117c1.672,-2.488 2.319,-5.607 2.758,-8.522c0.486,-3.211 0.906,-6.563 0.947,-9.813c0.089,-6.908 0.237,-14.264 -2.326,-20.813c-1.026,-2.621 -2.664,-5.165 -5.007,-6.793c-2.718,-1.886 -6.468,-2.266 -9.682,-2.405c-2.722,-0.118 -6.203,0.044 -8.046,2.39c-1.913,2.435 3.077,5.776 4.277,7.469c3.965,5.585 -1.313,11.794 -7.145,12.622c-5.98,0.85 -11.487,-3.734 -11.759,-9.8c-0.564,-12.557 16.307,-17.472 26.057,-17.284c12.68,0.244 25.205,6.55 30.448,18.528c2.709,6.187 3.579,13.601 2.349,20.242c-1.208,6.533 -3.976,11.922 -8.75,16.533c-5.778,5.584 -14.356,7.866 -22.252,7.47c-2.009,-0.099 -4.011,-0.389 -5.955,-0.905c-0.761,-0.201 -4.951,-2.259 -5.384,-1.63c-1.111,1.612 -2.223,3.222 -3.302,4.856c-0.99,1.498 -2.536,3.068 -2.536,4.909c0,1.84 1.546,3.41 2.536,4.91c1.079,1.633 2.191,3.243 3.302,4.855c0.433,0.628 4.623,-1.429 5.384,-1.631c1.944,-0.514 3.946,-0.805 5.955,-0.905c7.896,-0.395 16.474,1.887 22.252,7.47c4.774,4.61 7.542,10.002 8.75,16.533c1.23,6.641 0.36,14.056 -2.349,20.244c-5.243,11.978 -17.768,18.282 -30.448,18.527c-9.75,0.186 -26.621,-4.726 -26.057,-17.285c0.272,-6.065 5.779,-10.65 11.759,-9.799c5.832,0.828 11.11,7.038 7.145,12.623c-1.2,1.691 -6.19,5.03 -4.277,7.468c1.843,2.347 5.324,2.505 8.046,2.389c3.214,-0.138 6.964,-0.518 9.682,-2.404c2.343,-1.627 3.981,-4.172 5.007,-6.793c2.563,-6.548 2.415,-13.906 2.326,-20.815c-0.041,-3.247 -0.461,-6.599 -0.947,-9.812c-0.439,-2.916 -1.086,-6.034 -2.758,-8.522c-3.535,-5.265 -11.385,-4.841 -16.369,-2.117c-5.44,2.97 -8.393,9.53 -9.708,15.337c-0.236,1.056 -0.703,1.418 -1.074,0.134c-0.452,-1.556 -0.953,-3.102 -1.498,-4.629c-1.14,-3.19 -2.485,-6.303 -3.997,-9.331c-2.794,-5.588 -6.301,-11.518 -12,-14.549Z" style="fill:#fff;fill-rule:nonzero;"/></g></svg>